<svg width="200" height="200" viewBox="0 0 200 200" xmlns="http://www.w3.org/2000/svg">
<rect width="200" height="200" rx="36" fill="#100c1c"/>
<rect x="58" y="34" width="6" height="16" rx="3" fill="#a78bfa" transform="rotate(-20 61 42)"/>
<rect x="128" y="30" width="6" height="16" rx="3" fill="#f472b6" transform="rotate(15 131 38)"/>
<rect x="150" y="66" width="6" height="16" rx="3" fill="#34d399" transform="rotate(40 153 74)"/>
<rect x="142" y="148" width="6" height="16" rx="3" fill="#fbbf24" transform="rotate(-30 145 156)"/>
<rect x="50" y="150" width="6" height="16" rx="3" fill="#60a5fa" transform="rotate(20 53 158)"/>
<rect x="34" y="88" width="6" height="16" rx="3" fill="#f472b6" transform="rotate(-45 37 96)"/>
<rect x="158" y="106" width="6" height="16" rx="3" fill="#a78bfa" transform="rotate(30 161 114)"/>
<rect x="82" y="24" width="6" height="16" rx="3" fill="#34d399" transform="rotate(10 85 32)"/>
<rect x="108" y="162" width="6" height="16" rx="3" fill="#60a5fa" transform="rotate(-15 111 170)"/>
<rect x="162" y="48" width="5" height="13" rx="2.5" fill="#fbbf24" transform="rotate(55 164 54)"/>
<rect x="32" y="50" width="5" height="13" rx="2.5" fill="#34d399" transform="rotate(-55 35 56)"/>
<rect x="166" y="140" width="5" height="13" rx="2.5" fill="#f472b6" transform="rotate(-20 169 147)"/>
<rect x="30" y="130" width="5" height="13" rx="2.5" fill="#fbbf24" transform="rotate(50 33 136)"/>
<rect x="96" y="18" width="5" height="13" rx="2.5" fill="#f472b6" transform="rotate(-8 99 24)"/>
<rect x="68" y="168" width="5" height="13" rx="2.5" fill="#a78bfa" transform="rotate(25 71 175)"/>
<rect x="140" y="170" width="5" height="13" rx="2.5" fill="#34d399" transform="rotate(-40 143 177)"/>
<rect x="170" y="88" width="5" height="13" rx="2.5" fill="#60a5fa" transform="rotate(60 173 94)"/>
<rect x="26" y="168" width="5" height="13" rx="2.5" fill="#f472b6" transform="rotate(-10 29 174)"/>
<rect x="44" y="36" width="4" height="10" rx="2" fill="#60a5fa" transform="rotate(35 46 41)"/>
<rect x="152" y="158" width="4" height="10" rx="2" fill="#a78bfa" transform="rotate(-25 154 163)"/>
<rect x="174" y="118" width="4" height="10" rx="2" fill="#fbbf24" transform="rotate(45 176 123)"/>
<rect x="24" y="110" width="4" height="10" rx="2" fill="#34d399" transform="rotate(-60 26 115)"/>
<rect x="116" y="18" width="4" height="10" rx="2" fill="#60a5fa" transform="rotate(20 118 23)"/>
<circle cx="100" cy="100" r="40" fill="#1e1534"/>
<text x="100" y="114" text-anchor="middle" font-family="-apple-system,BlinkMacSystemFont,'Segoe UI',sans-serif" font-size="46" font-weight="700" fill="#a78bfa">W</text>
</svg>
